<svg viewBox="0 0 48 48" fill="none" xmlns="http://www.w3.org/2000/svg">
  <path d="M24 44C24 44 6 33 6 19C6 12 11 6 18 6C21.5 6 24 8 24 8C24 8 26.5 6 30 6C37 6 42 12 42 19C42 33 24 44 24 44Z" fill="#E8836B" opacity="0.15"/>
  <path d="M24 40C24 40 10 31 10 20C10 14.5 14 10 19.5 10C22 10 24 11.5 24 11.5C24 11.5 26 10 28.5 10C34 10 38 14.5 38 20C38 31 24 40 24 40Z" fill="#E8836B"/>
  <circle cx="17" cy="18" r="3" fill="#d46a52"/>
  <circle cx="31" cy="18" r="3" fill="#d46a52"/>
  <circle cx="24" cy="24" r="3.5" fill="#d46a52"/>
  <circle cx="19" cy="28" r="2.5" fill="#d46a52"/>
  <circle cx="29" cy="28" r="2.5" fill="#d46a52"/>
</svg>
